<svg width="164" height="164" viewBox="0 0 164 164" fill="none" xmlns="http://www.w3.org/2000/svg">
<circle cx="82" cy="82" r="80.5" stroke="#838383" stroke-width="3"/>
<path opacity="0.6" d="M54.25 130C51.7063 130 49.5279 129.104 47.7149 127.312C45.9019 125.52 44.9969 123.368 45 120.857V75.1429C45 72.6286 45.9065 70.4754 47.7195 68.6834C49.5325 66.8914 51.7093 65.997 54.25 66H58.875V56.8571C58.875 50.5333 61.1305 45.1421 65.6414 40.6834C70.1523 36.2248 75.6052 33.997 82 34C88.3979 34 93.8523 36.2293 98.3632 40.688C102.874 45.1467 105.128 50.5364 105.125 56.8571V66H109.75C112.294 66 114.472 66.896 116.285 68.688C118.098 70.48 119.003 72.6316 119 75.1429V120.857C119 123.371 118.093 125.525 116.28 127.317C114.467 129.109 112.291 130.003 109.75 130H54.25ZM54.25 120.857H109.75V75.1429H54.25V120.857ZM82 107.143C84.5438 107.143 86.7221 106.247 88.5351 104.455C90.3481 102.663 91.2531 100.511 91.25 98C91.25 95.4857 90.3435 93.3326 88.5305 91.5406C86.7175 89.7486 84.5407 88.8541 82 88.8571C79.4563 88.8571 77.2779 89.7531 75.4649 91.5451C73.6519 93.3371 72.7469 95.4888 72.75 98C72.75 100.514 73.6565 102.667 75.4695 104.459C77.2825 106.251 79.4593 107.146 82 107.143ZM68.125 66H95.875V56.8571C95.875 53.0476 94.526 49.8095 91.8281 47.1429C89.1302 44.4762 85.8542 43.1429 82 43.1429C78.1458 43.1429 74.8698 44.4762 72.1719 47.1429C69.474 49.8095 68.125 53.0476 68.125 56.8571V66Z" fill="#777777" fill-opacity="0.91"/>
</svg>
